<svg width="21" height="20" viewBox="0 0 21 20" fill="none" xmlns="http://www.w3.org/2000/svg">
<path d="M16.625 16C17.1554 16 17.6641 16.2107 18.0392 16.5858C18.4143 16.9609 18.625 17.4696 18.625 18C18.625 18.5304 18.4143 19.0391 18.0392 19.4142C17.6641 19.7893 17.1554 20 16.625 20C16.0946 20 15.5859 19.7893 15.2108 19.4142C14.8357 19.0391 14.625 18.5304 14.625 18C14.625 16.89 15.515 16 16.625 16ZM0.625 0H3.895L4.835 2H19.625C19.8902 2 20.1446 2.10536 20.3321 2.29289C20.5196 2.48043 20.625 2.73478 20.625 3C20.625 3.17 20.575 3.34 20.505 3.5L16.925 9.97C16.585 10.58 15.925 11 15.175 11H7.725L6.825 12.63L6.795 12.75C6.795 12.8163 6.82134 12.8799 6.86822 12.9268C6.91511 12.9737 6.9787 13 7.045 13H18.625V15H6.625C6.09457 15 5.58586 14.7893 5.21079 14.4142C4.83571 14.0391 4.625 13.5304 4.625 13C4.625 12.65 4.715 12.32 4.865 12.04L6.225 9.59L2.625 2H0.625V0ZM6.625 16C7.15543 16 7.66414 16.2107 8.03921 16.5858C8.41429 16.9609 8.625 17.4696 8.625 18C8.625 18.5304 8.41429 19.0391 8.03921 19.4142C7.66414 19.7893 7.15543 20 6.625 20C6.09457 20 5.58586 19.7893 5.21079 19.4142C4.83571 19.0391 4.625 18.5304 4.625 18C4.625 16.89 5.515 16 6.625 16ZM15.625 9L18.405 4H5.765L8.125 9H15.625Z" fill="#67687E"/>
</svg>
