<svg width="22" height="22" viewBox="0 0 22 22" fill="none" xmlns="http://www.w3.org/2000/svg">
<path d="M19.2453 10.7352L20.162 10.7068C20.1576 10.5666 20.121 10.4294 20.0552 10.3055C19.9894 10.1817 19.8961 10.0747 19.7824 9.99259C19.6687 9.91051 19.5377 9.85561 19.3994 9.83211C19.2612 9.8086 19.1194 9.81713 18.985 9.85702L19.2453 10.7352ZM11.2639 2.75469L12.1439 3.01502C12.1838 2.88052 12.1923 2.73866 12.1688 2.60036C12.1452 2.46206 12.0902 2.331 12.0081 2.2173C11.9259 2.1036 11.8187 2.01027 11.6948 1.94451C11.5708 1.87876 11.4335 1.84232 11.2933 1.83802L11.2639 2.75469ZM18.985 9.85702C18.4759 10.0078 17.9476 10.084 17.4166 10.0834V11.9168C18.1242 11.9173 18.8282 11.8154 19.5066 11.6143L18.9841 9.85702H18.985ZM17.4166 10.0834C15.9579 10.0834 14.5589 9.50397 13.5275 8.47252C12.496 7.44107 11.9166 6.04213 11.9166 4.58344H10.0833C10.0833 6.52836 10.8559 8.39362 12.2311 9.76888C13.6064 11.1442 15.4717 11.9168 17.4166 11.9168V10.0834ZM11.9166 4.58344C11.9166 4.0371 11.9963 3.51093 12.143 3.01593L10.3858 2.49344C10.1846 3.17186 10.0827 3.87582 10.0833 4.58344H11.9166ZM10.9999 3.66677C11.0788 3.66677 11.1576 3.66769 11.2355 3.67044L11.2933 1.83802C11.1955 1.83496 11.0977 1.83343 10.9999 1.83344V3.66677ZM3.66659 11.0001C3.66659 9.05518 4.4392 7.18992 5.81447 5.81465C7.18974 4.43939 9.055 3.66677 10.9999 3.66677V1.83344C5.93717 1.83344 1.83325 5.93735 1.83325 11.0001H3.66659ZM10.9999 18.3334C9.055 18.3334 7.18974 17.5608 5.81447 16.1856C4.4392 14.8103 3.66659 12.945 3.66659 11.0001H1.83325C1.83325 16.0629 5.93717 20.1668 10.9999 20.1668V18.3334ZM18.3333 11.0001C18.3333 12.945 17.5606 14.8103 16.1854 16.1856C14.8101 17.5608 12.9448 18.3334 10.9999 18.3334V20.1668C16.0627 20.1668 20.1666 16.0629 20.1666 11.0001H18.3333ZM18.3296 10.7645C18.3323 10.8424 18.3333 10.9213 18.3333 11.0001H20.1666C20.1666 10.902 20.1648 10.8039 20.162 10.7068L18.3296 10.7645Z" fill="#001640"/>
</svg>
