<svg width="22" height="22" viewBox="0 0 22 22" fill="none" xmlns="http://www.w3.org/2000/svg">
<path d="M6.1875 1.37512L5.5 2.06262V4.16225C5.95694 4.11174 6.41806 4.11174 6.875 4.16225V2.75012H19.25V9.62512H16.9029L15.125 11.403V9.62512H12.3379C12.3884 10.0821 12.3884 10.5432 12.3379 11.0001H13.75V13.0626L14.9242 13.5494L17.4721 11.0001H19.9375L20.625 10.3126V2.06262L19.9375 1.37512H6.1875Z" fill="#001640"/>
<path fill-rule="evenodd" clip-rule="evenodd" d="M8.82337 14.34C9.69043 13.7724 10.3511 12.94 10.7071 11.9668C11.0631 10.9935 11.0955 9.93135 10.7993 8.93825C10.5031 7.94514 9.89433 7.07416 9.0634 6.45486C8.23247 5.83557 7.22383 5.50104 6.1875 5.50104C5.15117 5.50104 4.14253 5.83557 3.3116 6.45486C2.48067 7.07416 1.87185 7.94514 1.5757 8.93825C1.27954 9.93135 1.31187 10.9935 1.66789 11.9668C2.0239 12.94 2.68457 13.7724 3.55163 14.34C2.48973 14.8402 1.59198 15.632 0.963124 16.6232C0.334265 17.6143 0.000231752 18.7638 0 19.9376L0 20.6251H1.375V19.9376C1.4172 18.6894 1.94272 17.5064 2.84063 16.6384C3.73854 15.7703 4.93859 15.2851 6.1875 15.2851C7.43641 15.2851 8.63646 15.7703 9.53437 16.6384C10.4323 17.5064 10.9578 18.6894 11 19.9376V20.6251H12.375V19.9376C12.3748 18.7638 12.0407 17.6143 11.4119 16.6232C10.783 15.632 9.88527 14.8402 8.82337 14.34ZM6.1875 13.7501C5.27582 13.7501 4.40148 13.388 3.75682 12.7433C3.11216 12.0986 2.75 11.2243 2.75 10.3126C2.75 9.40093 3.11216 8.52659 3.75682 7.88194C4.40148 7.23728 5.27582 6.87512 6.1875 6.87512C7.09918 6.87512 7.97352 7.23728 8.61818 7.88194C9.26284 8.52659 9.625 9.40093 9.625 10.3126C9.625 11.2243 9.26284 12.0986 8.61818 12.7433C7.97352 13.388 7.09918 13.7501 6.1875 13.7501Z" fill="#001640"/>
</svg>
