<svg width="21" height="20" viewBox="0 0 21 20" fill="none" xmlns="http://www.w3.org/2000/svg">
<path d="M3.91791 10H1.89771L10.9886 0.909088L20.0795 10H18.0593M3.91791 10V17.0707C3.91791 17.6065 4.13075 18.1203 4.50961 18.4992C4.88847 18.8781 5.40232 19.0909 5.93811 19.0909H16.0391C16.5749 19.0909 17.0888 18.8781 17.4676 18.4992C17.8465 18.1203 18.0593 17.6065 18.0593 17.0707V10" stroke="#67687E" stroke-width="2" stroke-linecap="round" stroke-linejoin="round"/>
<path d="M7.95825 19.0909V13.0303C7.95825 12.4945 8.17109 11.9807 8.54996 11.6018C8.92882 11.2229 9.44266 11.0101 9.97845 11.0101H11.9987C12.5344 11.0101 13.0483 11.2229 13.4272 11.6018C13.806 11.9807 14.0189 12.4945 14.0189 13.0303V19.0909" stroke="#67687E" stroke-width="2" stroke-linecap="round" stroke-linejoin="round"/>
</svg>
