<svg width="22" height="22" viewBox="0 0 22 22" fill="none" xmlns="http://www.w3.org/2000/svg">
<path d="M11.0184 17.0725C10.8312 17.0725 10.6516 17.1468 10.5192 17.2792C10.3869 17.4116 10.3125 17.5911 10.3125 17.7784C10.3125 17.9656 10.3869 18.1451 10.5192 18.2775C10.6516 18.4099 10.8312 18.4842 11.0184 18.4842H16.6654C17.1023 18.4842 17.5212 18.3107 17.8301 18.0018C18.139 17.6929 18.3125 17.274 18.3125 16.8372V5.54306C18.3125 5.10623 18.139 4.68729 17.8301 4.37841C17.5212 4.06953 17.1023 3.896 16.6654 3.896H11.0184C10.8312 3.896 10.6516 3.97037 10.5192 4.10274C10.3869 4.23512 10.3125 4.41467 10.3125 4.60188C10.3125 4.78909 10.3869 4.96863 10.5192 5.10101C10.6516 5.23339 10.8312 5.30776 11.0184 5.30776H16.6654C16.7278 5.30776 16.7877 5.33255 16.8318 5.37668C16.8759 5.4208 16.9007 5.48065 16.9007 5.54306V16.8372C16.9007 16.8996 16.8759 16.9594 16.8318 17.0036C16.7877 17.0477 16.7278 17.0725 16.6654 17.0725H11.0184Z" fill="#FE0017"/>
<path fill-rule="evenodd" clip-rule="evenodd" d="M12.8791 12.9237C13.4861 12.9237 13.9788 12.431 13.9788 11.8239V9.85328C13.9788 9.24625 13.4861 8.75358 12.8791 8.75358H8.82072C8.81512 8.68904 8.80926 8.62453 8.80312 8.56003L8.75562 8.07089C8.73882 7.89813 8.68061 7.73196 8.58592 7.58649C8.49123 7.44101 8.36286 7.32052 8.21169 7.23522C8.06051 7.14992 7.891 7.10234 7.71752 7.0965C7.54405 7.09066 7.37172 7.12674 7.21515 7.20168C5.77721 7.89045 4.47541 8.83313 3.37236 9.98437L3.28526 10.0759C3.08857 10.2811 2.97876 10.5544 2.97876 10.8386C2.97876 11.1229 3.08857 11.3961 3.28526 11.6014L3.37324 11.692C4.47597 12.8434 5.77747 13.7864 7.21515 14.4755C7.37172 14.5505 7.54405 14.5866 7.71752 14.5807C7.891 14.5749 8.06051 14.5273 8.21169 14.442C8.36286 14.3567 8.49123 14.2362 8.58592 14.0907C8.68061 13.9453 8.73882 13.7791 8.75562 13.6063L8.80312 13.1172L8.82072 12.9237H12.8791ZM8.20928 11.604C8.04138 11.6041 7.87985 11.6683 7.75758 11.7833C7.63532 11.8984 7.56152 12.0558 7.55122 12.2234C7.53451 12.4785 7.51427 12.7345 7.48964 12.9896L7.47556 13.1322C6.3271 12.5402 5.28242 11.7656 4.38232 10.8386C5.28237 9.91161 6.32707 9.13701 7.47556 8.54508L7.48964 8.6876C7.51427 8.94273 7.53451 9.19786 7.55122 9.45387C7.56152 9.62146 7.63532 9.77881 7.75758 9.89388C7.87985 10.009 8.04138 10.0731 8.20928 10.0732H12.6591V11.604H8.20928Z" fill="#FE0017"/>
</svg>
