<svg width="21" height="20" viewBox="0 0 21 20" fill="none" xmlns="http://www.w3.org/2000/svg">
<g clip-path="url(#clip0_563_14771)">
<path d="M18.4211 15.7895C18.8265 15.7897 19.2164 15.9459 19.5099 16.2257C19.8033 16.5055 19.9779 16.8875 19.9974 17.2925C20.0169 17.6976 19.8798 18.0946 19.6146 18.4013C19.3493 18.708 18.9762 18.9009 18.5726 18.94L18.4211 18.9474H1.57895C1.17346 18.9472 0.783584 18.791 0.490119 18.5111C0.196654 18.2313 0.0220926 17.8493 0.00260604 17.4443C-0.0168805 17.0393 0.120202 16.6423 0.385448 16.3356C0.650694 16.0289 1.02377 15.836 1.42737 15.7968L1.57895 15.7895H18.4211ZM18.4211 8.42105C18.8398 8.42105 19.2414 8.5874 19.5375 8.88351C19.8336 9.17962 20 9.58123 20 10C20 10.4188 19.8336 10.8204 19.5375 11.1165C19.2414 11.4126 18.8398 11.5789 18.4211 11.5789H1.57895C1.16018 11.5789 0.758573 11.4126 0.462463 11.1165C0.166353 10.8204 0 10.4188 0 10C0 9.58123 0.166353 9.17962 0.462463 8.88351C0.758573 8.5874 1.16018 8.42105 1.57895 8.42105H18.4211ZM18.4211 1.05263C18.8398 1.05263 19.2414 1.21898 19.5375 1.51509C19.8336 1.8112 20 2.21281 20 2.63157C20 3.05034 19.8336 3.45195 19.5375 3.74806C19.2414 4.04417 18.8398 4.21052 18.4211 4.21052H1.57895C1.16018 4.21052 0.758573 4.04417 0.462463 3.74806C0.166353 3.45195 0 3.05034 0 2.63157C0 2.21281 0.166353 1.8112 0.462463 1.51509C0.758573 1.21898 1.16018 1.05263 1.57895 1.05263H18.4211Z" fill="#67687E"/>
</g>
<defs>
<clipPath id="clip0_563_14771">
<rect width="20" height="20" fill="white" transform="translate(0.125)"/>
</clipPath>
</defs>
</svg>
