<svg width="22" height="22" viewBox="0 0 22 22" fill="none" xmlns="http://www.w3.org/2000/svg">
<g clip-path="url(#clip0_570_7360)">
<path d="M20.5016 13.8773L18.448 11.8237V9.10337C18.4457 7.22342 17.7463 5.41111 16.4852 4.01688C15.2241 2.62266 13.4908 1.74557 11.6205 1.55521V6.10352e-05H10.1033V1.55521C8.23302 1.74557 6.49973 2.62266 5.23863 4.01688C3.97752 5.41111 3.27818 7.22342 3.27583 9.10337V11.8237L1.22227 13.8773C1.08 14.0195 1.00004 14.2125 1 14.4136V16.6895C1 16.8907 1.07992 17.0836 1.22219 17.2259C1.36446 17.3682 1.55741 17.4481 1.75861 17.4481H7.06887V18.0375C7.05237 18.9999 7.39159 19.9346 8.02152 20.6623C8.65146 21.3901 9.5278 21.8599 10.4826 21.9815C11.01 22.0338 11.5425 21.9752 12.0458 21.8093C12.5491 21.6435 13.0122 21.3741 13.4052 21.0186C13.7982 20.663 14.1124 20.2292 14.3276 19.7449C14.5429 19.2606 14.6544 18.7366 14.655 18.2067V17.4481H19.9652C20.1664 17.4481 20.3594 17.3682 20.5016 17.2259C20.6439 17.0836 20.7238 16.8907 20.7238 16.6895V14.4136C20.7238 14.2125 20.6438 14.0195 20.5016 13.8773ZM13.1377 18.2067C13.1377 18.8103 12.898 19.3891 12.4712 19.8159C12.0444 20.2427 11.4655 20.4825 10.8619 20.4825C10.2583 20.4825 9.67947 20.2427 9.25267 19.8159C8.82587 19.3891 8.58609 18.8103 8.58609 18.2067V17.4481H13.1377V18.2067ZM19.2066 15.9309H2.51722V14.7277L4.57077 12.6741C4.71305 12.5319 4.793 12.339 4.79305 12.1378V9.10337C4.79305 7.49381 5.43244 5.95017 6.57058 4.81203C7.70871 3.6739 9.25235 3.0345 10.8619 3.0345C12.4715 3.0345 14.0151 3.6739 15.1533 4.81203C16.2914 5.95017 16.9308 7.49381 16.9308 9.10337V12.1378C16.9308 12.339 17.0108 12.5319 17.1531 12.6741L19.2066 14.7277V15.9309Z" fill="#001640"/>
</g>
<defs>
<clipPath id="clip0_570_7360">
<rect width="22" height="22" fill="white"/>
</clipPath>
</defs>
</svg>
