<svg width="22" height="22" viewBox="0 0 22 22" fill="none" xmlns="http://www.w3.org/2000/svg">
<g clip-path="url(#clip0_570_7349)">
<path fill-rule="evenodd" clip-rule="evenodd" d="M10.2758 11.4949C12.7797 11.4949 15.0567 12.2202 16.7318 13.2411C17.5678 13.7532 18.2826 14.354 18.7989 15.0072C19.3067 15.6509 19.6808 16.42 19.6808 17.2424C19.6808 18.1254 19.2513 18.8214 18.6327 19.3178C18.0475 19.788 17.2752 20.0994 16.4549 20.3168C14.8059 20.7526 12.6051 20.8999 10.2758 20.8999C7.94654 20.8999 5.74577 20.7536 4.09676 20.3168C3.27644 20.0994 2.50418 19.788 1.91898 19.3178C1.2993 18.8204 0.87085 18.1254 0.87085 17.2424C0.87085 16.42 1.24496 15.6509 1.75283 15.0072C2.26906 14.354 2.98279 13.7532 3.81984 13.2411C5.49497 12.2202 7.77307 11.4949 10.2758 11.4949ZM10.2758 13.5849C8.16181 13.5849 6.25991 14.2015 4.90873 15.026C4.23261 15.4377 3.72265 15.885 3.39348 16.303C3.0549 16.7314 2.96085 17.0554 2.96085 17.2424C2.96085 17.3699 2.99951 17.5047 3.22732 17.6876C3.48753 17.8966 3.94001 18.1129 4.6318 18.2958C6.00911 18.6615 7.98834 18.8099 10.2758 18.8099C12.5644 18.8099 14.5426 18.6605 15.9188 18.2958C16.6117 18.1129 17.0642 17.8966 17.3244 17.6876C17.5522 17.5047 17.5908 17.3699 17.5908 17.2424C17.5908 17.0543 17.4968 16.7314 17.1593 16.303C16.829 15.885 16.3191 15.4377 15.643 15.026C14.2918 14.2004 12.3899 13.5849 10.2758 13.5849ZM10.2758 -6.10352e-05C11.6616 -6.10352e-05 12.9906 0.550428 13.9705 1.5303C14.9503 2.51018 15.5008 3.83918 15.5008 5.22493C15.5008 6.61069 14.9503 7.93969 13.9705 8.91956C12.9906 9.89944 11.6616 10.4499 10.2758 10.4499C8.89009 10.4499 7.56109 9.89944 6.58121 8.91956C5.60134 7.93969 5.05085 6.61069 5.05085 5.22493C5.05085 3.83918 5.60134 2.51018 6.58121 1.5303C7.56109 0.550428 8.89009 -6.10352e-05 10.2758 -6.10352e-05ZM10.2758 2.08994C9.86415 2.08994 9.45649 2.17103 9.07613 2.32857C8.69578 2.48612 8.35018 2.71705 8.05906 3.00816C7.76795 3.29927 7.53703 3.64487 7.37948 4.02522C7.22193 4.40558 7.14085 4.81324 7.14085 5.22493C7.14085 5.63663 7.22193 6.04429 7.37948 6.42465C7.53703 6.805 7.76795 7.1506 8.05906 7.44171C8.35018 7.73282 8.69578 7.96375 9.07613 8.12129C9.45649 8.27884 9.86415 8.35993 10.2758 8.35993C11.1073 8.35993 11.9047 8.02964 12.4926 7.44171C13.0805 6.85379 13.4108 6.05639 13.4108 5.22493C13.4108 4.39348 13.0805 3.59608 12.4926 3.00816C11.9047 2.42023 11.1073 2.08994 10.2758 2.08994Z" fill="#001640"/>
</g>
<defs>
<clipPath id="clip0_570_7349">
<rect width="22" height="22" fill="white"/>
</clipPath>
</defs>
</svg>
