<svg width="313" height="220" viewBox="0 0 313 220" fill="none" xmlns="http://www.w3.org/2000/svg">
<path d="M156.5 206.75C194.604 206.75 229.133 195.968 254.157 178.497C279.177 161.028 294.75 136.822 294.75 110C294.75 83.1775 279.177 58.9718 254.157 41.5028C229.133 24.032 194.604 13.25 156.5 13.25C118.396 13.25 83.8667 24.032 58.8435 41.5028C33.8227 58.9718 18.25 83.1775 18.25 110C18.25 136.822 33.8227 161.028 58.8435 178.497C83.8667 195.968 118.396 206.75 156.5 206.75Z" stroke="#D9E6FF" stroke-width="1.5"/>
<path d="M156.5 212.75C197.089 212.75 233.868 201.297 260.52 182.74C287.169 164.186 303.75 138.48 303.75 110C303.75 81.5197 287.169 55.814 260.52 37.2596C233.868 18.7034 197.089 7.25 156.5 7.25C115.911 7.25 79.1322 18.7034 52.4803 37.2596C25.8311 55.814 9.25 81.5197 9.25 110C9.25 138.48 25.8311 164.186 52.4803 182.74C79.1322 201.297 115.911 212.75 156.5 212.75Z" stroke="#D9E6FF" stroke-width="1.5"/>
<path d="M156.5 218.75C199.299 218.75 238.078 206.625 266.178 186.982C294.275 167.341 311.75 140.136 311.75 110C311.75 79.8642 294.275 52.6585 266.178 33.0178C238.078 13.3753 199.299 1.25 156.5 1.25C113.701 1.25 74.922 13.3753 46.8223 33.0178C18.7251 52.6585 1.25 79.8642 1.25 110C1.25 140.136 18.7251 167.341 46.8223 186.982C74.922 206.625 113.701 218.75 156.5 218.75Z" stroke="#D9E6FF" stroke-width="1.5"/>
<circle cx="26.5" cy="172.5" r="10.5" fill="#D9E6FF"/>
<circle cx="37" cy="59" r="8" fill="#D9E6FF"/>
<circle cx="280.5" cy="60.5" r="9.5" fill="#D9E6FF"/>
<circle cx="259.5" cy="182.5" r="11.5" fill="#D9E6FF"/>
</svg>
